# xmcd
#
# Track frame offsets:
# 150
# 17576
# 32272
# 48555
# 66308
# 84813
# 104934
# 124624
# 140092
# 159302
# 175885
# 191598
# 210738
# 225838
# 243514
# 257303
# 273886
# 293827
# 312181
# 331329
#
# Disc length: 4657 seconds
#
#
# Revision: 2
# Processed by: cddbd v1.5.2PL0 Copyright (c) Steve Scherf et al.
# Submitted via: FreeRIP 2.951 
#
DISCID=0f122f14
DTITLE=Boleros Em Inglês - As 20 Mais
DYEAR=1900
DGENRE=Ballad
TTITLE0=Faixa 01 - Nothing's Gonna Change My Love For You
TTITLE1=Faixa 02 - Stuck You
TTITLE2=Faixa 03 - Lost In Your Eyes
TTITLE3=Faixa 04 - Skyline Pigeon
TTITLE4=Faixa 05 - Lover Why
TTITLE5=Faixa 06 - Forever By Your Side
TTITLE6=Faixa 07 - Must Have Been Love
TTITLE7=Faixa 08 - Broken Wings
TTITLE8=Faixa 09 - This The End
TTITLE9=Faixa 10 - Unchained Melody
TTITLE10=Faixa 11 - If You Don't Know, Me By Now
TTITLE11=Faixa 12 - Take My Breath A Way
TTITLE12=Faixa 13 - Yes
TTITLE13=Faixa 14 - Love Hurst
TTITLE14=Faixa 15 - Give Me Your Heart Tonight
TTITLE15=Faixa 16 - Coming Around Again
TTITLE16=Faixa 17 - I Just Called To Say A Love You
TTITLE17=Faixa 18 - Say You, Say Me
TTITLE18=Faixa 19 - Immortality
TTITLE19=Faixa 20 - Heaven
EXTD=pedro.rp@oi.com.br\nJan. 2007
EXTT0=
EXTT1=
EXTT2=
EXTT3=
EXTT4=
EXTT5=
EXTT6=
EXTT7=
EXTT8=
EXTT9=
EXTT10=
EXTT11=
EXTT12=
EXTT13=
EXTT14=
EXTT15=
EXTT16=
EXTT17=
EXTT18=
EXTT19=
PLAYORDER=
